 <svg
          width="305"
          height="109"
          viewBox="0 0 305 109"
          fill="none"
          xmlns="http://www.w3.org/2000/svg"
        >
          <circle cx="54.5" cy="54.5" r="54.5" fill="white" />
          <path
            d="M125.461 39H128.73V62.3086L128.449 66H125.461V39ZM141.58 56.332V56.7012C141.58 58.084 141.416 59.3672 141.088 60.5508C140.76 61.7227 140.279 62.7422 139.646 63.6094C139.014 64.4766 138.24 65.1504 137.326 65.6309C136.412 66.1113 135.363 66.3516 134.18 66.3516C132.973 66.3516 131.912 66.1465 130.998 65.7363C130.096 65.3145 129.334 64.7109 128.713 63.9258C128.092 63.1406 127.594 62.1914 127.219 61.0781C126.855 59.9648 126.604 58.7109 126.463 57.3164V55.6992C126.604 54.293 126.855 53.0332 127.219 51.9199C127.594 50.8066 128.092 49.8574 128.713 49.0723C129.334 48.2754 130.096 47.6719 130.998 47.2617C131.9 46.8398 132.949 46.6289 134.145 46.6289C135.34 46.6289 136.4 46.8633 137.326 47.332C138.252 47.7891 139.025 48.4453 139.646 49.3008C140.279 50.1562 140.76 51.1816 141.088 52.377C141.416 53.5605 141.58 54.8789 141.58 56.332ZM138.311 56.7012V56.332C138.311 55.3828 138.223 54.4922 138.047 53.6602C137.871 52.8164 137.59 52.0781 137.203 51.4453C136.816 50.8008 136.307 50.2969 135.674 49.9336C135.041 49.5586 134.262 49.3711 133.336 49.3711C132.516 49.3711 131.801 49.5117 131.191 49.793C130.594 50.0742 130.084 50.4551 129.662 50.9355C129.24 51.4043 128.895 51.9434 128.625 52.5527C128.367 53.1504 128.174 53.7715 128.045 54.416V58.6523C128.232 59.4727 128.537 60.2637 128.959 61.0254C129.393 61.7754 129.967 62.3906 130.682 62.8711C131.408 63.3516 132.305 63.5918 133.371 63.5918C134.25 63.5918 135 63.416 135.621 63.0645C136.254 62.7012 136.764 62.2031 137.15 61.5703C137.549 60.9375 137.842 60.2051 138.029 59.373C138.217 58.541 138.311 57.6504 138.311 56.7012ZM157.33 61.6055V46.9805H160.6V66H157.488L157.33 61.6055ZM157.945 57.5977L159.299 57.5625C159.299 58.8281 159.164 60 158.895 61.0781C158.637 62.1445 158.215 63.0703 157.629 63.8555C157.043 64.6406 156.275 65.2559 155.326 65.7012C154.377 66.1348 153.223 66.3516 151.863 66.3516C150.938 66.3516 150.088 66.2168 149.314 65.9473C148.553 65.6777 147.896 65.2617 147.346 64.6992C146.795 64.1367 146.367 63.4043 146.062 62.502C145.77 61.5996 145.623 60.5156 145.623 59.25V46.9805H148.875V59.2852C148.875 60.1406 148.969 60.8496 149.156 61.4121C149.355 61.9629 149.619 62.4023 149.947 62.7305C150.287 63.0469 150.662 63.2695 151.072 63.3984C151.494 63.5273 151.928 63.5918 152.373 63.5918C153.756 63.5918 154.852 63.3281 155.66 62.8008C156.469 62.2617 157.049 61.541 157.4 60.6387C157.764 59.7246 157.945 58.7109 157.945 57.5977ZM177.545 62.3086V39H180.814V66H177.826L177.545 62.3086ZM164.748 56.7012V56.332C164.748 54.8789 164.924 53.5605 165.275 52.377C165.639 51.1816 166.148 50.1562 166.805 49.3008C167.473 48.4453 168.264 47.7891 169.178 47.332C170.104 46.8633 171.135 46.6289 172.271 46.6289C173.467 46.6289 174.51 46.8398 175.4 47.2617C176.303 47.6719 177.064 48.2754 177.686 49.0723C178.318 49.8574 178.816 50.8066 179.18 51.9199C179.543 53.0332 179.795 54.293 179.936 55.6992V57.3164C179.807 58.7109 179.555 59.9648 179.18 61.0781C178.816 62.1914 178.318 63.1406 177.686 63.9258C177.064 64.7109 176.303 65.3145 175.4 65.7363C174.498 66.1465 173.443 66.3516 172.236 66.3516C171.123 66.3516 170.104 66.1113 169.178 65.6309C168.264 65.1504 167.473 64.4766 166.805 63.6094C166.148 62.7422 165.639 61.7227 165.275 60.5508C164.924 59.3672 164.748 58.084 164.748 56.7012ZM168.018 56.332V56.7012C168.018 57.6504 168.111 58.541 168.299 59.373C168.498 60.2051 168.803 60.9375 169.213 61.5703C169.623 62.2031 170.145 62.7012 170.777 63.0645C171.41 63.416 172.166 63.5918 173.045 63.5918C174.123 63.5918 175.008 63.3633 175.699 62.9062C176.402 62.4492 176.965 61.8457 177.387 61.0957C177.809 60.3457 178.137 59.5312 178.371 58.6523V54.416C178.23 53.7715 178.025 53.1504 177.756 52.5527C177.498 51.9434 177.158 51.4043 176.736 50.9355C176.326 50.4551 175.816 50.0742 175.207 49.793C174.609 49.5117 173.9 49.3711 173.08 49.3711C172.189 49.3711 171.422 49.5586 170.777 49.9336C170.145 50.2969 169.623 50.8008 169.213 51.4453C168.803 52.0781 168.498 52.8164 168.299 53.6602C168.111 54.4922 168.018 55.3828 168.018 56.332ZM198.199 46.9805H201.152V65.5957C201.152 67.2715 200.812 68.7012 200.133 69.8848C199.453 71.0684 198.504 71.9648 197.285 72.5742C196.078 73.1953 194.684 73.5059 193.102 73.5059C192.445 73.5059 191.672 73.4004 190.781 73.1895C189.902 72.9902 189.035 72.6445 188.18 72.1523C187.336 71.6719 186.627 71.0215 186.053 70.2012L187.758 68.2676C188.555 69.2285 189.387 69.8965 190.254 70.2715C191.133 70.6465 192 70.834 192.855 70.834C193.887 70.834 194.777 70.6406 195.527 70.2539C196.277 69.8672 196.857 69.293 197.268 68.5312C197.689 67.7812 197.9 66.8555 197.9 65.7539V51.1641L198.199 46.9805ZM185.104 56.7012V56.332C185.104 54.8789 185.273 53.5605 185.613 52.377C185.965 51.1816 186.463 50.1562 187.107 49.3008C187.764 48.4453 188.555 47.7891 189.48 47.332C190.406 46.8633 191.449 46.6289 192.609 46.6289C193.805 46.6289 194.848 46.8398 195.738 47.2617C196.641 47.6719 197.402 48.2754 198.023 49.0723C198.656 49.8574 199.154 50.8066 199.518 51.9199C199.881 53.0332 200.133 54.293 200.273 55.6992V57.3164C200.145 58.7109 199.893 59.9648 199.518 61.0781C199.154 62.1914 198.656 63.1406 198.023 63.9258C197.402 64.7109 196.641 65.3145 195.738 65.7363C194.836 66.1465 193.781 66.3516 192.574 66.3516C191.438 66.3516 190.406 66.1113 189.48 65.6309C188.566 65.1504 187.781 64.4766 187.125 63.6094C186.469 62.7422 185.965 61.7227 185.613 60.5508C185.273 59.3672 185.104 58.084 185.104 56.7012ZM188.355 56.332V56.7012C188.355 57.6504 188.449 58.541 188.637 59.373C188.836 60.2051 189.135 60.9375 189.533 61.5703C189.943 62.2031 190.465 62.7012 191.098 63.0645C191.73 63.416 192.486 63.5918 193.365 63.5918C194.443 63.5918 195.334 63.3633 196.037 62.9062C196.74 62.4492 197.297 61.8457 197.707 61.0957C198.129 60.3457 198.457 59.5312 198.691 58.6523V54.416C198.562 53.7715 198.363 53.1504 198.094 52.5527C197.836 51.9434 197.496 51.4043 197.074 50.9355C196.664 50.4551 196.154 50.0742 195.545 49.793C194.936 49.5117 194.221 49.3711 193.4 49.3711C192.51 49.3711 191.742 49.5586 191.098 49.9336C190.465 50.2969 189.943 50.8008 189.533 51.4453C189.135 52.0781 188.836 52.8164 188.637 53.6602C188.449 54.4922 188.355 55.3828 188.355 56.332ZM213.984 66.3516C212.66 66.3516 211.459 66.1289 210.381 65.6836C209.314 65.2266 208.395 64.5879 207.621 63.7676C206.859 62.9473 206.273 61.9746 205.863 60.8496C205.453 59.7246 205.248 58.4941 205.248 57.1582V56.4199C205.248 54.873 205.477 53.4961 205.934 52.2891C206.391 51.0703 207.012 50.0391 207.797 49.1953C208.582 48.3516 209.473 47.7129 210.469 47.2793C211.465 46.8457 212.496 46.6289 213.562 46.6289C214.922 46.6289 216.094 46.8633 217.078 47.332C218.074 47.8008 218.889 48.457 219.521 49.3008C220.154 50.1328 220.623 51.1172 220.928 52.2539C221.232 53.3789 221.385 54.6094 221.385 55.9453V57.4043H207.182V54.75H218.133V54.5039C218.086 53.6602 217.91 52.8398 217.605 52.043C217.312 51.2461 216.844 50.5898 216.199 50.0742C215.555 49.5586 214.676 49.3008 213.562 49.3008C212.824 49.3008 212.145 49.459 211.523 49.7754C210.902 50.0801 210.369 50.5371 209.924 51.1465C209.479 51.7559 209.133 52.5 208.887 53.3789C208.641 54.2578 208.518 55.2715 208.518 56.4199V57.1582C208.518 58.0605 208.641 58.9102 208.887 59.707C209.145 60.4922 209.514 61.1836 209.994 61.7812C210.486 62.3789 211.078 62.8477 211.77 63.1875C212.473 63.5273 213.27 63.6973 214.16 63.6973C215.309 63.6973 216.281 63.4629 217.078 62.9941C217.875 62.5254 218.572 61.8984 219.17 61.1133L221.139 62.6777C220.729 63.2988 220.207 63.8906 219.574 64.4531C218.941 65.0156 218.162 65.4727 217.236 65.8242C216.322 66.1758 215.238 66.3516 213.984 66.3516ZM233.145 46.9805V49.4766H222.861V46.9805H233.145ZM226.342 42.3574H229.594V61.2891C229.594 61.9336 229.693 62.4199 229.893 62.748C230.092 63.0762 230.35 63.293 230.666 63.3984C230.982 63.5039 231.322 63.5566 231.686 63.5566C231.955 63.5566 232.236 63.5332 232.529 63.4863C232.834 63.4277 233.062 63.3809 233.215 63.3457L233.232 66C232.975 66.082 232.635 66.1582 232.213 66.2285C231.803 66.3105 231.305 66.3516 230.719 66.3516C229.922 66.3516 229.189 66.1934 228.521 65.877C227.854 65.5605 227.32 65.0332 226.922 64.2949C226.535 63.5449 226.342 62.5371 226.342 61.2715V42.3574ZM240.492 39V66H237.223V39H240.492ZM251.057 64.0312L256.348 46.9805H259.828L252.199 68.9355C252.023 69.4043 251.789 69.9082 251.496 70.4473C251.215 70.998 250.852 71.5195 250.406 72.0117C249.961 72.5039 249.422 72.9023 248.789 73.207C248.168 73.5234 247.424 73.6816 246.557 73.6816C246.299 73.6816 245.971 73.6465 245.572 73.5762C245.174 73.5059 244.893 73.4473 244.729 73.4004L244.711 70.7637C244.805 70.7754 244.951 70.7871 245.15 70.7988C245.361 70.8223 245.508 70.834 245.59 70.834C246.328 70.834 246.955 70.7344 247.471 70.5352C247.986 70.3477 248.42 70.0254 248.771 69.5684C249.135 69.123 249.445 68.5078 249.703 67.7227L251.057 64.0312ZM247.172 46.9805L252.111 61.7461L252.955 65.1738L250.617 66.3691L243.621 46.9805H247.172ZM260.918 64.2773C260.918 63.7266 261.088 63.2637 261.428 62.8887C261.779 62.502 262.283 62.3086 262.939 62.3086C263.596 62.3086 264.094 62.502 264.434 62.8887C264.785 63.2637 264.961 63.7266 264.961 64.2773C264.961 64.8164 264.785 65.2734 264.434 65.6484C264.094 66.0234 263.596 66.2109 262.939 66.2109C262.283 66.2109 261.779 66.0234 261.428 65.6484C261.088 65.2734 260.918 64.8164 260.918 64.2773ZM277.969 63.6797C278.742 63.6797 279.457 63.5215 280.113 63.2051C280.77 62.8887 281.309 62.4551 281.73 61.9043C282.152 61.3418 282.393 60.7031 282.451 59.9883H285.545C285.486 61.1133 285.105 62.1621 284.402 63.1348C283.711 64.0957 282.803 64.875 281.678 65.4727C280.553 66.0586 279.316 66.3516 277.969 66.3516C276.539 66.3516 275.291 66.0996 274.225 65.5957C273.17 65.0918 272.291 64.4004 271.588 63.5215C270.896 62.6426 270.375 61.6348 270.023 60.498C269.684 59.3496 269.514 58.1367 269.514 56.8594V56.1211C269.514 54.8438 269.684 53.6367 270.023 52.5C270.375 51.3516 270.896 50.3379 271.588 49.459C272.291 48.5801 273.17 47.8887 274.225 47.3848C275.291 46.8809 276.539 46.6289 277.969 46.6289C279.457 46.6289 280.758 46.9336 281.871 47.543C282.984 48.1406 283.857 48.9609 284.49 50.0039C285.135 51.0352 285.486 52.207 285.545 53.5195H282.451C282.393 52.7344 282.17 52.0254 281.783 51.3926C281.408 50.7598 280.893 50.2559 280.236 49.8809C279.592 49.4941 278.836 49.3008 277.969 49.3008C276.973 49.3008 276.135 49.5 275.455 49.8984C274.787 50.2852 274.254 50.8125 273.855 51.4805C273.469 52.1367 273.188 52.8691 273.012 53.6777C272.848 54.4746 272.766 55.2891 272.766 56.1211V56.8594C272.766 57.6914 272.848 58.5117 273.012 59.3203C273.176 60.1289 273.451 60.8613 273.838 61.5176C274.236 62.1738 274.77 62.7012 275.438 63.0996C276.117 63.4863 276.961 63.6797 277.969 63.6797ZM296.812 63.6797C297.586 63.6797 298.301 63.5215 298.957 63.2051C299.613 62.8887 300.152 62.4551 300.574 61.9043C300.996 61.3418 301.236 60.7031 301.295 59.9883H304.389C304.33 61.1133 303.949 62.1621 303.246 63.1348C302.555 64.0957 301.646 64.875 300.521 65.4727C299.396 66.0586 298.16 66.3516 296.812 66.3516C295.383 66.3516 294.135 66.0996 293.068 65.5957C292.014 65.0918 291.135 64.4004 290.432 63.5215C289.74 62.6426 289.219 61.6348 288.867 60.498C288.527 59.3496 288.357 58.1367 288.357 56.8594V56.1211C288.357 54.8438 288.527 53.6367 288.867 52.5C289.219 51.3516 289.74 50.3379 290.432 49.459C291.135 48.5801 292.014 47.8887 293.068 47.3848C294.135 46.8809 295.383 46.6289 296.812 46.6289C298.301 46.6289 299.602 46.9336 300.715 47.543C301.828 48.1406 302.701 48.9609 303.334 50.0039C303.979 51.0352 304.33 52.207 304.389 53.5195H301.295C301.236 52.7344 301.014 52.0254 300.627 51.3926C300.252 50.7598 299.736 50.2559 299.08 49.8809C298.436 49.4941 297.68 49.3008 296.812 49.3008C295.816 49.3008 294.979 49.5 294.299 49.8984C293.631 50.2852 293.098 50.8125 292.699 51.4805C292.312 52.1367 292.031 52.8691 291.855 53.6777C291.691 54.4746 291.609 55.2891 291.609 56.1211V56.8594C291.609 57.6914 291.691 58.5117 291.855 59.3203C292.02 60.1289 292.295 60.8613 292.682 61.5176C293.08 62.1738 293.613 62.7012 294.281 63.0996C294.961 63.4863 295.805 63.6797 296.812 63.6797Z"
            fill="white"
          />
          <rect x="21" y="46" width="18" height="33" fill="#57C9EE" />
          <rect x="45" y="29" width="18" height="50" fill="#F57282" />
          <rect x="69" y="41" width="18" height="38" fill="#FCCB60" />
        </svg>
