<?xml version="1.0" standalone="no"?>
<!DOCTYPE svg PUBLIC "-//W3C//DTD SVG 20010904//EN"
 "http://www.w3.org/TR/2001/REC-SVG-20010904/DTD/svg10.dtd">
<svg version="1.0" xmlns="http://www.w3.org/2000/svg"
 width="800.000000pt" height="800.000000pt" viewBox="0 0 800.000000 800.000000"
 preserveAspectRatio="xMidYMid meet">
<metadata>
Created by potrace 1.14, written by Peter Selinger 2001-2017
</metadata>
<g transform="translate(0.000000,800.000000) scale(0.100000,-0.100000)"
fill="#000000" stroke="none">
<path d="M219 7716 c7 -9 9 -29 5 -55 -4 -28 -3 -41 5 -41 7 0 11 21 11 55 0
44 -3 55 -16 55 -13 0 -14 -3 -5 -14z"/>
<path d="M284 7717 c-3 -8 -4 -34 -2 -58 3 -39 6 -44 28 -44 24 0 25 3 25 55
0 49 -2 55 -23 58 -12 2 -24 -3 -28 -11z m44 -51 c3 -41 1 -47 -15 -44 -20 4
-28 37 -18 75 9 39 30 21 33 -31z"/>
<path d="M366 7714 c-3 -9 -5 -30 -5 -47 2 -29 2 -28 8 8 9 59 36 55 36 -5 0
-37 -3 -45 -17 -44 -22 2 -24 -12 -4 -19 8 -3 20 0 26 8 12 15 16 87 6 104
-11 16 -43 13 -50 -5z"/>
<path d="M247 7033 c-13 -13 -7 -25 7 -14 19 16 26 2 24 -45 -1 -22 -8 -44
-17 -51 -10 -7 -11 -12 -4 -13 19 0 43 30 43 55 0 53 -30 92 -53 68z"/>
<path d="M333 7033 c-7 -2 -12 -19 -12 -36 l1 -32 7 29 c3 16 11 31 18 33 12
4 17 -11 26 -67 3 -15 5 -9 6 16 0 22 -4 45 -11 52 -13 13 -16 13 -35 5z"/>
<path d="M4497 6502 c-15 -3 -17 -28 -17 -250 -1 -136 -3 -411 -5 -612 -2
-201 -7 -1130 -10 -2065 l-6 -1700 133 3 c73 1 140 2 148 1 8 -1 115 -2 237
-3 l223 -1 0 310 c0 171 3 1211 7 2312 l6 2002 -350 3 c-192 2 -357 2 -366 0z
m-10 -2434 c-3 -8 -6 -5 -6 6 -1 11 2 17 5 13 3 -3 4 -12 1 -19z"/>
<path d="M254 6342 c-7 -4 -13 -29 -15 -56 -3 -39 0 -51 14 -60 15 -9 21 -7
32 8 8 10 12 24 8 29 -3 6 -10 1 -14 -11 -10 -26 -24 -29 -33 -7 -3 9 3 20 14
27 24 15 26 28 5 28 -18 0 -20 21 -3 38 13 13 9 16 -8 4z"/>
<path d="M316 6318 c-3 -13 -5 -32 -5 -43 1 -11 5 -2 10 19 10 42 6 62 -5 24z"/>
<path d="M361 6285 c1 -46 1 -48 11 -22 7 20 7 35 0 50 -9 18 -11 14 -11 -28z"/>
<path d="M338 6223 c7 -3 16 -2 19 1 4 3 -2 6 -13 5 -11 0 -14 -3 -6 -6z"/>
<path d="M262 5607 c-16 -69 -14 -94 3 -37 7 25 16 55 20 68 4 12 3 22 -2 22
-4 0 -14 -24 -21 -53z"/>
<path d="M314 5626 c-3 -13 -4 -35 -1 -47 3 -19 5 -17 6 8 0 17 8 39 17 47 14
14 14 16 0 16 -9 0 -18 -11 -22 -24z"/>
<path d="M362 5600 c-1 -26 -7 -51 -14 -58 -9 -9 -9 -12 0 -12 15 0 25 39 19
81 -3 29 -4 27 -5 -11z"/>
<path d="M246 4955 c-22 -23 -22 -98 2 -116 15 -12 16 -12 5 2 -16 19 -9 99 9
110 7 4 10 11 6 14 -3 3 -13 -1 -22 -10z"/>
<path d="M324 4952 c-17 -11 -27 -69 -15 -89 8 -14 10 -8 11 29 0 34 5 50 18
57 9 6 13 10 7 11 -5 0 -15 -4 -21 -8z"/>
<path d="M362 4898 c-1 -27 -6 -48 -12 -48 -5 0 -10 -5 -10 -12 0 -8 5 -7 16
3 11 11 14 29 11 60 l-4 44 -1 -47z"/>
<path d="M269 4897 c7 -9 11 -27 8 -38 -4 -15 -3 -19 4 -12 15 15 7 55 -11 61
-13 5 -13 3 -1 -11z"/>
<path d="M1990 4833 c0 -38 -3 -507 -7 -1043 l-6 -975 366 0 c201 1 369 3 371
6 4 4 9 1562 6 2042 l0 37 -365 0 -365 0 0 -67z"/>
<path d="M5743 4872 l-33 -3 0 -700 c0 -511 3 -698 11 -693 6 3 37 6 68 6 31
0 190 -1 354 -2 164 -1 300 -1 301 1 2 2 5 315 7 694 l4 690 -30 2 c-57 4
-650 8 -682 5z"/>
<path d="M237 4263 c-4 -3 -7 -19 -7 -34 0 -21 6 -28 25 -31 31 -6 32 5 4 24
-20 13 -21 15 -5 31 14 13 14 17 3 17 -7 0 -17 -3 -20 -7z"/>
<path d="M317 4263 c-12 -20 -16 -70 -7 -83 8 -12 10 -10 9 10 -4 51 0 63 20
57 14 -3 18 -1 14 9 -5 15 -29 19 -36 7z"/>
<path d="M361 4205 c-2 -35 -10 -50 -31 -58 -13 -4 -12 -6 1 -6 26 -1 41 24
36 61 l-4 33 -2 -30z"/>
<path d="M255 4150 c-16 -7 -17 -9 -3 -9 9 -1 20 4 23 9 7 11 7 11 -20 0z"/>
<path d="M316 3558 c-9 -12 -15 -36 -15 -53 1 -19 3 -23 6 -10 2 11 6 30 9 43
5 26 31 30 37 5 4 -15 5 -15 6 -2 0 9 -5 22 -13 28 -11 10 -17 7 -30 -11z"/>
<path d="M251 3552 c-14 -27 -12 -35 8 -23 7 5 11 17 9 27 -4 17 -5 17 -17 -4z"/>
<path d="M351 3495 c0 -17 -7 -38 -13 -45 -7 -8 -5 -8 5 1 13 11 17 26 14 45
l-4 29 -2 -30z"/>
<path d="M220 3484 c0 -7 6 -11 14 -8 8 3 17 0 21 -5 8 -14 25 -4 25 14 0 9
-11 13 -30 13 -18 -1 -30 -6 -30 -14z"/>
<path d="M224 2868 c-5 -8 -2 -9 10 -5 21 8 33 -18 17 -37 -9 -10 -8 -15 3
-19 16 -6 30 32 20 57 -7 19 -40 21 -50 4z"/>
<path d="M307 2863 c-4 -3 -6 -27 -6 -52 l2 -46 7 50 c8 53 7 59 -3 48z"/>
<path d="M352 2818 c-1 -33 -7 -50 -19 -57 -10 -6 -13 -11 -7 -11 22 0 35 29
31 72 l-4 43 -1 -47z"/>
<path d="M260 2771 c0 -5 -8 -12 -17 -14 -14 -4 -12 -5 5 -6 13 -1 22 5 22 14
0 8 -2 15 -5 15 -3 0 -5 -4 -5 -9z"/>
<path d="M3220 2110 l0 -460 33 -1 c118 -3 684 -4 695 -1 9 3 12 105 12 463
l0 459 -370 0 -370 0 0 -460z"/>
<path d="M6960 2340 c0 -113 -2 -320 -4 -460 l-4 -255 374 -1 374 -1 1 106 c0
58 2 264 4 458 l3 352 -321 0 c-177 0 -324 0 -327 1 -3 1 -26 2 -53 3 l-47 2
0 -205z"/>
<path d="M231 2176 c-10 -12 -8 -13 10 -9 20 6 22 4 15 -27 -3 -19 -13 -41
-21 -50 -19 -21 -19 -30 0 -30 9 0 15 6 13 13 -1 6 6 27 15 45 14 24 15 37 7
52 -13 24 -23 25 -39 6z"/>
<path d="M306 2168 c-18 -25 -19 -53 -5 -83 8 -17 9 -15 5 9 -5 40 10 80 29
73 9 -4 12 -1 8 9 -7 20 -19 18 -37 -8z"/>
<path d="M351 2118 c0 -9 -4 -25 -7 -35 -5 -17 -5 -17 6 0 6 10 9 25 7 35 -4
15 -5 15 -6 0z"/>
<path d="M717 2103 c-4 -3 -7 -160 -7 -347 l0 -341 148 2 c81 0 249 2 375 2
l227 1 0 345 0 345 -368 0 c-203 0 -372 -3 -375 -7z"/>
<path d="M228 1477 c6 -7 12 -35 15 -62 3 -48 3 -48 5 13 2 51 -1 62 -14 62
-12 0 -14 -3 -6 -13z"/>
<path d="M300 1471 c-5 -11 -9 -35 -9 -53 l1 -33 7 35 c15 77 41 81 42 8 1
-52 1 -52 12 -20 18 58 -26 112 -53 63z"/>
<path d="M257 783 c-4 -3 -6 -29 -6 -57 l2 -51 7 55 c7 59 7 64 -3 53z"/>
<path d="M302 736 c-1 -22 -9 -48 -19 -58 -9 -10 -11 -18 -6 -18 22 0 34 30
30 72 l-4 43 -1 -39z"/>
<path d="M2207 373 c-4 -3 -7 -33 -7 -66 0 -77 10 -68 15 12 4 62 3 66 -8 54z"/>
<path d="M2287 373 c-11 -11 -8 -121 4 -129 6 -3 10 1 9 12 -4 34 0 44 15 44
21 0 19 17 -4 23 -14 3 -17 11 -14 31 5 26 2 32 -10 19z"/>
<path d="M2367 363 c-9 -36 -8 -111 3 -118 6 -4 10 18 10 64 0 70 -4 88 -13
54z"/>
<path d="M1000 315 c-4 -49 -8 -60 -22 -59 -10 1 -18 -2 -18 -7 0 -14 40 -10
46 5 3 7 4 38 2 67 l-4 54 -4 -60z"/>
<path d="M1068 364 c-9 -15 -38 -117 -34 -121 2 -2 9 3 16 12 7 8 21 15 32 15
17 0 19 4 12 33 -10 49 -20 71 -26 61z m12 -56 c0 -16 -3 -19 -11 -11 -6 6 -8
16 -5 22 11 17 16 13 16 -11z"/>
<path d="M1131 308 c1 -35 3 -54 6 -43 14 69 14 69 24 54 12 -19 11 -7 -1 25
-17 46 -30 29 -29 -36z"/>
<path d="M1202 348 c-3 -36 -12 -59 -22 -53 -5 3 -3 -8 3 -25 17 -44 29 -21
24 46 -2 32 -4 47 -5 32z"/>
<path d="M3422 303 c1 -49 3 -56 5 -25 2 23 8 42 12 42 5 0 6 11 3 25 -9 50
-22 23 -20 -42z"/>
<path d="M3499 343 c-6 -16 -17 -41 -25 -56 -16 -32 -18 -47 -6 -47 4 0 14 15
21 33 l14 32 7 -35 c6 -29 8 -23 9 33 0 37 -1 67 -4 67 -3 0 -10 -12 -16 -27z"/>
<path d="M3577 363 c-12 -11 -7 -40 6 -40 9 0 12 9 9 24 -5 25 -6 26 -15 16z"/>
<path d="M3641 303 c1 -45 3 -59 8 -43 4 16 14 25 26 25 12 0 21 -9 25 -25 4
-15 7 0 7 38 1 34 -3 62 -7 62 -5 0 -6 -9 -3 -20 6 -24 -22 -39 -40 -21 -9 9
-9 16 1 31 10 17 10 20 -3 20 -12 0 -15 -14 -14 -67z"/>
<path d="M4791 303 c0 -38 4 -60 8 -50 3 10 18 23 31 30 27 13 38 53 21 70 -7
7 -10 1 -8 -19 2 -23 -2 -29 -18 -29 -16 0 -20 6 -19 33 1 17 -2 32 -7 32 -5
0 -9 -30 -8 -67z"/>
<path d="M4888 357 c-12 -27 -10 -117 2 -117 6 0 10 9 10 19 0 41 31 31 43
-14 3 -11 5 9 4 44 -2 47 -6 66 -17 69 -13 5 -13 3 -1 -11 16 -20 8 -47 -13
-47 -10 0 -16 13 -18 38 -2 27 -5 32 -10 19z"/>
<path d="M2411 334 c-10 -22 -9 -28 5 -38 13 -10 14 -17 5 -34 -10 -18 -9 -21
4 -16 12 5 14 16 9 58 -4 28 -8 52 -9 54 -1 1 -7 -10 -14 -24z"/>
<path d="M4708 300 c-16 -61 -15 -73 7 -44 10 15 13 15 29 -2 17 -16 18 -16
14 7 -2 16 -9 23 -20 21 -12 -2 -18 4 -18 18 0 11 5 20 10 20 6 0 10 9 10 20
0 39 -16 19 -32 -40z"/>
<path d="M5941 293 c2 -59 3 -63 9 -28 5 33 8 36 14 20 4 -11 12 -31 18 -45
l11 -25 12 35 c13 35 18 32 28 -15 3 -11 5 14 6 55 0 68 -1 73 -14 56 -8 -11
-15 -28 -15 -37 0 -23 -10 -49 -20 -49 -4 0 -13 20 -20 45 -19 69 -30 64 -29
-12z"/>
<path d="M6150 349 c0 -8 6 -24 14 -35 8 -11 16 -36 18 -55 3 -34 4 -33 24 28
12 35 18 63 13 63 -5 0 -11 -11 -15 -25 -7 -29 -27 -28 -32 1 -5 25 -22 43
-22 23z"/>
<path d="M6081 290 c-13 -58 -10 -94 4 -51 8 27 20 27 40 -1 16 -23 17 -22 10
12 -9 42 -14 49 -24 31 -7 -10 -10 -11 -16 -1 -5 8 -1 18 9 25 9 7 14 19 10
29 -11 29 -20 17 -33 -44z"/>
<path d="M7258 340 c-10 -24 -16 -130 -7 -130 5 0 11 10 14 23 8 31 1 126 -7
107z"/>
<path d="M7290 298 c0 -47 13 -91 22 -78 8 11 -4 130 -13 130 -5 0 -9 -24 -9
-52z"/>
<path d="M7362 301 c-1 -34 -8 -61 -19 -73 -9 -10 -11 -18 -6 -18 23 0 34 30
30 87 l-3 58 -2 -54z"/>
<path d="M7396 334 c-9 -25 -7 -102 3 -109 6 -3 11 14 13 37 l4 43 19 -42 c11
-24 23 -43 28 -43 4 0 6 30 5 68 -1 48 -3 55 -5 25 -2 -24 -7 -43 -11 -43 -4
0 -15 18 -25 40 -19 44 -22 47 -31 24z"/>
<path d="M3557 297 c-4 -10 -7 -26 -7 -35 1 -15 2 -15 11 1 6 10 9 25 7 35 -3
16 -4 15 -11 -1z"/>
<path d="M3593 295 c-8 -16 -6 -24 8 -39 21 -21 23 -12 10 34 -7 24 -8 24 -18
5z"/>
<path d="M7210 236 c0 -9 5 -16 10 -16 6 0 10 4 10 9 0 6 -4 13 -10 16 -5 3
-10 -1 -10 -9z"/>
</g>
</svg>
